<?xml version="1.0" standalone="no"?>
<!DOCTYPE svg PUBLIC "-//W3C//DTD SVG 20010904//EN"
 "http://www.w3.org/TR/2001/REC-SVG-20010904/DTD/svg10.dtd">
<svg version="1.0" xmlns="http://www.w3.org/2000/svg"
 width="120.000000pt" height="120.000000pt" viewBox="0 0 120.000000 120.000000"
 preserveAspectRatio="xMidYMid meet">
<metadata>
Created by potrace 1.14, written by Peter Selinger 2001-2017
</metadata>
<g transform="translate(0.000000,120.000000) scale(0.100000,-0.100000)"
fill="#000000" stroke="none">
<path d="M1106 1163 c-59 -94 -60 -94 -457 -94 -362 0 -407 -5 -479 -53 -57
-37 -107 -94 -142 -162 -28 -54 -31 -65 -20 -88 8 -17 19 -26 35 -26 27 0 43
17 75 81 50 100 142 155 253 154 l54 -1 -1 -59 c-3 -132 -23 -361 -40 -450 -2
-11 -9 -49 -14 -84 -6 -35 -17 -79 -25 -97 -8 -19 -12 -34 -10 -34 2 0 -5 -21
-16 -47 -25 -59 -64 -101 -103 -111 -16 -4 -35 -17 -42 -28 -12 -17 -11 -23 3
-43 13 -20 22 -23 59 -18 105 11 184 141 228 372 15 80 19 109 32 220 3 33 8
74 10 90 3 27 17 242 17 273 0 6 3 12 6 13 3 1 116 2 251 3 226 2 248 4 285
23 52 27 88 60 114 103 25 42 26 63 5 84 -26 26 -52 19 -78 -21z"/>
<path d="M789 829 c-12 -12 -19 -34 -20 -61 0 -24 -2 -51 -4 -60 -2 -9 -6 -54
-9 -100 -3 -46 -9 -121 -13 -168 -4 -47 -8 -128 -8 -180 0 -82 4 -102 25 -144
14 -28 42 -63 63 -80 33 -26 47 -30 109 -33 53 -2 83 3 115 17 79 35 141 127
151 221 4 40 1 49 -19 63 -35 24 -59 2 -79 -72 -25 -89 -66 -129 -141 -137
-87 -8 -132 44 -133 155 0 59 9 188 18 265 3 17 7 80 11 140 4 61 9 118 11
129 9 48 -43 79 -77 45z"/>
</g>
</svg>
