<svg fill="#000000" xmlns="http://www.w3.org/2000/svg"  viewBox="0 0 24 24" width="144px" height="144px"><path d="M11.999,5c1.109,0,2.011,0.902,2.011,2.011c0,1.108-0.902,2.01-2.011,2.01c-1.108,0-2.011-0.902-2.011-2.01C9.988,5.902,10.891,5,11.999,5z M11.999,12.009c2.757,0,4.999-2.241,4.999-4.997c0-2.757-2.241-4.999-4.999-4.999C9.242,2.012,7,4.254,7,7.011C7,9.767,9.242,12.009,11.999,12.009z M13.964,15.83c0.989-0.225,1.943-0.617,2.821-1.168c0.665-0.419,0.865-1.298,0.446-1.962c-0.418-0.666-1.297-0.867-1.962-0.448c-1.99,1.252-4.552,1.251-6.54,0c-0.666-0.419-1.544-0.218-1.962,0.448c-0.419,0.665-0.219,1.544,0.446,1.962c0.878,0.551,1.832,0.943,2.821,1.168l-2.716,2.716c-0.555,0.556-0.555,1.457,0.001,2.012c0.278,0.278,0.642,0.417,1.006,0.417c0.364,0,0.729-0.139,1.007-0.417l2.668-2.669l2.67,2.669c0.555,0.556,1.456,0.556,2.012,0c0.556-0.556,0.556-1.457,0-2.012L13.964,15.83z"/></svg>